<?xml version="1.0" encoding="UTF-8" standalone="no"?>
<!-- Created with Inkscape (http://www.inkscape.org/) -->

<svg
   version="1.1"
   id="svg2"
   xml:space="preserve"
   width="100"
   height="100"
   viewBox="0 0 100 100"
   sodipodi:docname="2024_Summer_Olympics_logo.svg"
   inkscape:version="0.92.2 5c3e80d, 2017-08-06"
   inkscape:export-filename="logo.svg"
   inkscape:export-xdpi="718"
   inkscape:export-ydpi="718"
   xmlns:inkscape="http://www.inkscape.org/namespaces/inkscape"
   xmlns:sodipodi="http://sodipodi.sourceforge.net/DTD/sodipodi-0.dtd"
   xmlns="http://www.w3.org/2000/svg"
   xmlns:svg="http://www.w3.org/2000/svg"
   xmlns:rdf="http://www.w3.org/1999/02/22-rdf-syntax-ns#"
   xmlns:cc="http://creativecommons.org/ns#"
   xmlns:dc="http://purl.org/dc/elements/1.1/"><metadata
     id="metadata8"><rdf:RDF><cc:Work
         rdf:about=""><dc:format>image/svg+xml</dc:format><dc:type
           rdf:resource="http://purl.org/dc/dcmitype/StillImage" /></cc:Work></rdf:RDF></metadata><defs
     id="defs6" /><sodipodi:namedview
     pagecolor="#ffffff"
     bordercolor="#666666"
     borderopacity="1"
     objecttolerance="10"
     gridtolerance="10"
     guidetolerance="10"
     inkscape:pageopacity="0"
     inkscape:pageshadow="2"
     inkscape:window-width="1280"
     inkscape:window-height="682"
     id="namedview4"
     showgrid="false"
     inkscape:zoom="0.84096496"
     inkscape:cx="-261.47305"
     inkscape:cy="185.76267"
     inkscape:window-x="0"
     inkscape:window-y="1"
     inkscape:window-maximized="1"
     inkscape:current-layer="g10"
     fit-margin-left="5"
     fit-margin-top="5"
     fit-margin-bottom="5"
     fit-margin-right="5"
     inkscape:showpageshadow="0"
     inkscape:pagecheckerboard="0"
     inkscape:deskcolor="#d1d1d1" /><g
     id="g10"
     inkscape:groupmode="layer"
     inkscape:label="Paris2024_Nouvel_embleme_Dossier_de_presse"
     transform="matrix(1.3333333,0,0,-1.3333333,-222.84747,692.58692)"><g
       id="g2"
       transform="translate(-1.7833945,88.909699)"><g
         transform="translate(205.5795,388.4116)"
         id="g5564"><path
           inkscape:connector-curvature="0"
           id="path5566"
           style="fill:#fcb030;fill-opacity:1;fill-rule:nonzero;stroke:none"
           d="m 0,0 c 0,-5.566 -4.515,-10.08 -10.081,-10.08 -5.567,0 -10.078,4.514 -10.078,10.08 0,5.567 4.511,10.079 10.078,10.079 C -4.515,10.079 0,5.567 0,0 m -10.081,8.399 c -4.638,0 -8.398,-3.761 -8.398,-8.399 0,-4.638 3.76,-8.399 8.398,-8.399 4.64,0 8.401,3.761 8.401,8.399 0,4.638 -3.761,8.399 -8.401,8.399" /></g><g
         transform="translate(227.4189,388.4116)"
         id="g5568"><path
           inkscape:connector-curvature="0"
           id="path5570"
           style="fill:#00a652;fill-opacity:1;fill-rule:nonzero;stroke:none"
           d="m 0,0 c 0,-5.566 -4.514,-10.08 -10.08,-10.08 -5.567,0 -10.08,4.514 -10.08,10.08 0,5.567 4.513,10.079 10.08,10.079 C -4.514,10.079 0,5.567 0,0 m -10.08,8.399 c -4.64,0 -8.399,-3.761 -8.399,-8.399 0,-4.638 3.759,-8.399 8.399,-8.399 4.639,0 8.4,3.761 8.4,8.399 0,4.638 -3.761,8.399 -8.4,8.399" /></g><g
         transform="translate(184.5818,407.7274)"
         id="g5572"><path
           inkscape:connector-curvature="0"
           id="path5574"
           style="fill:#0082c7;fill-opacity:1;fill-rule:nonzero;stroke:none"
           d="m 0,0 c -5.568,0 -10.08,-4.51 -10.08,-10.077 0,-5.566 4.512,-10.079 10.08,-10.079 0.294,0 0.583,0.017 0.872,0.041 -0.02,0.263 -0.034,0.53 -0.034,0.799 0,0.301 0.017,0.593 0.041,0.885 -0.29,-0.028 -0.582,-0.043 -0.879,-0.043 -4.64,0 -8.401,3.758 -8.401,8.397 0,4.64 3.761,8.401 8.401,8.401 4.638,0 8.399,-3.761 8.399,-8.401 0,-3.725 -2.426,-6.881 -5.786,-7.981 -0.061,-0.411 -0.095,-0.832 -0.095,-1.258 0,-0.175 0.007,-0.344 0.017,-0.517 4.339,1.127 7.542,5.069 7.542,9.756 C 10.077,-4.51 5.566,0 0,0" /></g><g
         transform="translate(228.2572,407.7294)"
         id="g5576"><path
           inkscape:connector-curvature="0"
           id="path5578"
           style="fill:#e8384f;fill-opacity:1;fill-rule:nonzero;stroke:none"
           d="m 0,0 c -5.296,0 -9.635,-4.084 -10.044,-9.276 0.568,-0.049 1.124,-0.144 1.662,-0.286 0.267,4.398 3.918,7.884 8.382,7.884 4.641,0 8.401,-3.761 8.401,-8.399 0,-4.641 -3.76,-8.399 -8.401,-8.399 -4.209,0 -7.699,3.099 -8.304,7.14 -0.554,0.181 -1.136,0.305 -1.734,0.369 0.449,-5.148 4.772,-9.191 10.038,-9.191 5.566,0 10.079,4.513 10.079,10.081 C 10.079,-4.512 5.566,0 0,0" /></g><g
         transform="translate(206.4196,407.7294)"
         id="g5580"><path
           inkscape:connector-curvature="0"
           id="path5582"
           style="fill:#000000;fill-opacity:1;fill-rule:nonzero;stroke:none"
           d="m 0,0 c -5.298,0 -9.638,-4.089 -10.046,-9.276 0.57,-0.051 1.124,-0.148 1.664,-0.286 0.267,4.398 3.916,7.884 8.382,7.884 4.639,0 8.399,-3.761 8.399,-8.399 0,-3.727 -2.426,-6.883 -5.784,-7.983 -0.06,-0.413 -0.095,-0.832 -0.095,-1.258 0,-0.174 0.005,-0.344 0.017,-0.517 4.337,1.127 7.542,5.069 7.542,9.758 C 10.079,-4.512 5.567,0 0,0" /></g><g
         transform="translate(207.2594,388.4116)"
         id="g5584"><path
           inkscape:connector-curvature="0"
           id="path5586"
           style="fill:#000000;fill-opacity:1;fill-rule:nonzero;stroke:none"
           d="M 0,0 C 0,0.301 0.015,0.593 0.041,0.885 -0.25,0.857 -0.543,0.842 -0.84,0.842 c -4.212,0 -7.699,3.099 -8.308,7.139 -0.554,0.182 -1.132,0.305 -1.73,0.368 0.449,-5.146 4.771,-9.189 10.038,-9.189 0.294,0 0.585,0.017 0.872,0.041 C 0.01,-0.536 0,-0.269 0,0" /></g></g></g></svg>
