<?xml version="1.0" encoding="UTF-8" standalone="no"?>
<!-- Created with Inkscape (http://www.inkscape.org/) -->

<svg
   version="1.1"
   id="svg2"
   xml:space="preserve"
   width="100"
   height="100"
   viewBox="0 0 100 100"
   sodipodi:docname="2024_Summer_Olympics_logo.svg"
   inkscape:version="0.92.2 5c3e80d, 2017-08-06"
   inkscape:export-filename="/Users/tevabaude/Downloads/Logo Paris 2024.png"
   inkscape:export-xdpi="718"
   inkscape:export-ydpi="718"
   xmlns:inkscape="http://www.inkscape.org/namespaces/inkscape"
   xmlns:sodipodi="http://sodipodi.sourceforge.net/DTD/sodipodi-0.dtd"
   xmlns="http://www.w3.org/2000/svg"
   xmlns:svg="http://www.w3.org/2000/svg"
   xmlns:rdf="http://www.w3.org/1999/02/22-rdf-syntax-ns#"
   xmlns:cc="http://creativecommons.org/ns#"
   xmlns:dc="http://purl.org/dc/elements/1.1/"><metadata
     id="metadata8"><rdf:RDF><cc:Work
         rdf:about=""><dc:format>image/svg+xml</dc:format><dc:type
           rdf:resource="http://purl.org/dc/dcmitype/StillImage" /></cc:Work></rdf:RDF></metadata><defs
     id="defs6" /><sodipodi:namedview
     pagecolor="#ffffff"
     bordercolor="#666666"
     borderopacity="1"
     objecttolerance="10"
     gridtolerance="10"
     guidetolerance="10"
     inkscape:pageopacity="0"
     inkscape:pageshadow="2"
     inkscape:window-width="1280"
     inkscape:window-height="682"
     id="namedview4"
     showgrid="false"
     inkscape:zoom="0.84096496"
     inkscape:cx="-261.47305"
     inkscape:cy="185.76267"
     inkscape:window-x="0"
     inkscape:window-y="1"
     inkscape:window-maximized="1"
     inkscape:current-layer="g10"
     fit-margin-left="5"
     fit-margin-top="5"
     fit-margin-bottom="5"
     fit-margin-right="5"
     inkscape:showpageshadow="0"
     inkscape:pagecheckerboard="0"
     inkscape:deskcolor="#d1d1d1" /><g
     id="g10"
     inkscape:groupmode="layer"
     inkscape:label="Paris2024_Nouvel_embleme_Dossier_de_presse"
     transform="matrix(1.3333333,0,0,-1.3333333,-222.84747,692.58692)"><g
       transform="translate(210.7446,452.0781)"
       id="g5588"><path
         inkscape:connector-curvature="0"
         id="path5590"
         style="fill:#d6c278;fill-opacity:1;fill-rule:nonzero;stroke:none"
         d="M 0,0 C -1.054,0.392 -2.827,0.428 -4.326,-0.792 -5.825,0.428 -7.598,0.392 -8.652,0 c -0.881,-0.328 -1.572,-0.547 -2.87,-0.536 1.286,-2.681 4.026,-4.53 7.196,-4.53 3.17,0 5.91,1.849 7.196,4.53 C 1.572,-0.547 0.881,-0.328 0,0" /></g><g
       transform="matrix(0.95461143,0,0,0.96735502,204.63656,519.4402)"
       id="g5592"
       style="stroke-width:1.04063"><path
         inkscape:connector-curvature="0"
         id="path5594"
         style="fill:#d6c278;fill-opacity:1;fill-rule:nonzero;stroke:none;stroke-width:1.04063"
         d="m 0,0 c -21.695,0 -39.284,-17.588 -39.284,-39.284 0,-18.597 12.925,-34.177 30.282,-38.247 -13.793,7.379 -19.417,24.299 -12.766,38.472 1.075,-5.597 4.724,-10.584 10.176,-13.172 -7.111,16.632 -1.875,36.184 12.8,46.997 -2.887,-9.885 1.547,-18.93 11.058,-25.759 10.879,-7.81 11.339,-23.747 1.738,-32.362 3.814,0.888 7.362,2.988 10.012,6.203 C 22.381,-65.576 17.099,-73.198 9,-77.531 c 17.358,4.07 30.282,19.65 30.282,38.247 C 39.282,-17.588 21.695,0 0,0" /></g></g></svg>
