<svg xmlns="http://www.w3.org/2000/svg" xmlns:xlink="http://www.w3.org/1999/xlink" width="100" zoomAndPan="magnify" viewBox="0 0 75 74.999997" height="100" preserveAspectRatio="xMidYMid meet" version="1.0"><defs><filter x="0%" y="0%" width="100%" height="100%" id="d1db34cea7"><feColorMatrix values="0 0 0 0 1 0 0 0 0 1 0 0 0 0 1 0 0 0 1 0" color-interpolation-filters="sRGB"/></filter><mask id="6f80450b59"><g filter="url(#d1db34cea7)"><rect x="-7.5" width="90" fill="#000000" y="-7.5" height="89.999996" fill-opacity="0.42"/></g></mask><clipPath id="9c0d98fbb3"><path d="M 0 0.554688 L 15 0.554688 L 15 30.554688 L 0 30.554688 Z M 0 0.554688 " clip-rule="nonzero"/></clipPath><clipPath id="6171ec33a1"><rect x="0" width="16" y="0" height="31"/></clipPath><mask id="2b9d0e3833"><g filter="url(#d1db34cea7)"><rect x="-7.5" width="90" fill="#000000" y="-7.5" height="89.999996" fill-opacity="0.42"/></g></mask><clipPath id="71ee252c29"><path d="M 0.558594 0 L 30.5 0 L 30.5 15 L 0.558594 15 Z M 0.558594 0 " clip-rule="nonzero"/></clipPath><clipPath id="ae67da9ca4"><rect x="0" width="31" y="0" height="16"/></clipPath><mask id="1d9918e1b6"><g filter="url(#d1db34cea7)"><rect x="-7.5" width="90" fill="#000000" y="-7.5" height="89.999996" fill-opacity="0.42"/></g></mask><clipPath id="e870f04516"><path d="M 0 0.554688 L 15 0.554688 L 15 30.554688 L 0 30.554688 Z M 0 0.554688 " clip-rule="nonzero"/></clipPath><clipPath id="623ae6fb94"><rect x="0" width="15" y="0" height="31"/></clipPath><mask id="97e3236556"><g filter="url(#d1db34cea7)"><rect x="-7.5" width="90" fill="#000000" y="-7.5" height="89.999996" fill-opacity="0.42"/></g></mask><clipPath id="c07ab37b5a"><path d="M 0.558594 0.0546875 L 30.5 0.0546875 L 30.5 15 L 0.558594 15 Z M 0.558594 0.0546875 " clip-rule="nonzero"/></clipPath><clipPath id="4215226c76"><rect x="0" width="31" y="0" height="15"/></clipPath><mask id="30a3f0f8d2"><g filter="url(#d1db34cea7)"><rect x="-7.5" width="90" fill="#000000" y="-7.5" height="89.999996" fill-opacity="0.42"/></g></mask><clipPath id="c88c3a99be"><path d="M 18 18 L 25 18 L 25 25 L 18 25 Z M 18 18 " clip-rule="nonzero"/></clipPath><clipPath id="e9754ca073"><path d="M 1.03125 15.929688 L 27.070312 1.03125 L 41.96875 27.070312 L 15.929688 41.96875 Z M 1.03125 15.929688 " clip-rule="nonzero"/></clipPath><clipPath id="e24ecb9318"><path d="M 1.03125 15.929688 L 27.070312 1.03125 L 41.96875 27.070312 L 15.929688 41.96875 Z M 1.03125 15.929688 " clip-rule="nonzero"/></clipPath><clipPath id="85cfd7be7f"><path d="M 8 8 L 35 8 L 35 35 L 8 35 Z M 8 8 " clip-rule="nonzero"/></clipPath><clipPath id="c43a9e7135"><path d="M 1.03125 15.929688 L 27.070312 1.03125 L 41.96875 27.070312 L 15.929688 41.96875 Z M 1.03125 15.929688 " clip-rule="nonzero"/></clipPath><clipPath id="686cc144a7"><path d="M 1.03125 15.929688 L 27.070312 1.03125 L 41.96875 27.070312 L 15.929688 41.96875 Z M 1.03125 15.929688 " clip-rule="nonzero"/></clipPath><clipPath id="e94543e6f9"><rect x="0" width="43" y="0" height="43"/></clipPath></defs><g mask="url(#6f80450b59)"><g transform="matrix(1, 0, 0, 1, 0, 22)"><g clip-path="url(#6171ec33a1)"><g clip-path="url(#9c0d98fbb3)"><path fill="#e51d23" d="M 0.0273438 30.429688 C -8.136719 30.425781 -14.789062 23.859375 -14.890625 15.683594 C -14.988281 7.335938 -8.265625 0.554688 0.0625 0.5625 C 8.34375 0.570312 14.988281 7.265625 14.980469 15.574219 C 14.972656 23.765625 8.257812 30.4375 0.0273438 30.429688 Z M 0.046875 3.820312 C -6.34375 3.816406 -11.613281 9.042969 -11.625 15.402344 C -11.632812 21.917969 -6.449219 27.144531 0.03125 27.167969 C 6.4375 27.1875 11.707031 21.945312 11.714844 15.546875 C 11.71875 9.066406 6.511719 3.828125 0.046875 3.820312 Z M 8.554688 15.488281 C 8.554688 20.253906 4.761719 24.007812 -0.0507812 24.007812 C -4.683594 24.007812 -8.484375 20.160156 -8.480469 15.476562 C -8.476562 10.746094 -4.648438 6.96875 0.132812 6.972656 C 4.765625 6.980469 8.558594 10.820312 8.554688 15.488281 Z M 5.234375 15.5625 C 5.234375 12.734375 2.90625 10.375 0.113281 10.375 C -2.828125 10.375 -5.132812 12.675781 -5.132812 15.59375 C -5.132812 18.449219 -2.796875 20.742188 0.113281 20.742188 C 2.902344 20.738281 5.234375 18.386719 5.234375 15.5625 Z M 0.0390625 13.242188 C -1.199219 13.242188 -2.210938 14.253906 -2.210938 15.496094 C -2.210938 16.75 -1.199219 17.753906 0.0625 17.746094 C 1.3125 17.742188 2.289062 16.746094 2.289062 15.488281 C 2.289062 14.234375 1.296875 13.242188 0.0390625 13.242188 Z M 0.0390625 13.242188 " fill-opacity="1" fill-rule="nonzero"/></g></g></g></g><g mask="url(#2b9d0e3833)"><g transform="matrix(1, 0, 0, 1, 22, -0.000000000000001893)"><g clip-path="url(#ae67da9ca4)"><g clip-path="url(#71ee252c29)"><path fill="#e51d23" d="M 15.527344 14.929688 C 7.363281 14.925781 0.710938 8.359375 0.609375 0.183594 C 0.511719 -8.164062 7.234375 -14.945312 15.5625 -14.9375 C 23.84375 -14.929688 30.488281 -8.234375 30.480469 0.0742188 C 30.472656 8.265625 23.757812 14.9375 15.527344 14.929688 Z M 15.546875 -11.679688 C 9.15625 -11.683594 3.886719 -6.457031 3.875 -0.0976562 C 3.867188 6.417969 9.050781 11.644531 15.53125 11.667969 C 21.9375 11.6875 27.207031 6.445312 27.214844 0.046875 C 27.21875 -6.433594 22.011719 -11.671875 15.546875 -11.679688 Z M 24.054688 -0.0117188 C 24.054688 4.753906 20.261719 8.507812 15.449219 8.507812 C 10.816406 8.507812 7.015625 4.660156 7.019531 -0.0234375 C 7.023438 -4.753906 10.851562 -8.53125 15.632812 -8.527344 C 20.265625 -8.519531 24.058594 -4.679688 24.054688 -0.0117188 Z M 20.734375 0.0625 C 20.734375 -2.765625 18.40625 -5.125 15.613281 -5.125 C 12.671875 -5.125 10.367188 -2.824219 10.367188 0.09375 C 10.367188 2.949219 12.703125 5.242188 15.613281 5.242188 C 18.402344 5.238281 20.734375 2.886719 20.734375 0.0625 Z M 15.539062 -2.257812 C 14.300781 -2.257812 13.289062 -1.246094 13.289062 -0.00390625 C 13.289062 1.25 14.300781 2.253906 15.5625 2.246094 C 16.8125 2.242188 17.789062 1.246094 17.789062 -0.0117188 C 17.789062 -1.265625 16.796875 -2.257812 15.539062 -2.257812 Z M 15.539062 -2.257812 " fill-opacity="1" fill-rule="nonzero"/></g></g></g></g><g mask="url(#1d9918e1b6)"><g transform="matrix(1, 0, 0, 1, 60, 22)"><g clip-path="url(#623ae6fb94)"><g clip-path="url(#e870f04516)"><path fill="#e51d23" d="M 15.027344 30.429688 C 6.863281 30.425781 0.210938 23.859375 0.109375 15.683594 C 0.0117188 7.335938 6.734375 0.554688 15.0625 0.5625 C 23.34375 0.570312 29.988281 7.265625 29.980469 15.574219 C 29.972656 23.765625 23.257812 30.4375 15.027344 30.429688 Z M 15.046875 3.820312 C 8.65625 3.816406 3.386719 9.042969 3.375 15.402344 C 3.367188 21.917969 8.550781 27.144531 15.03125 27.167969 C 21.4375 27.1875 26.707031 21.945312 26.714844 15.546875 C 26.71875 9.066406 21.511719 3.828125 15.046875 3.820312 Z M 23.554688 15.488281 C 23.554688 20.253906 19.761719 24.007812 14.949219 24.007812 C 10.316406 24.007812 6.515625 20.160156 6.519531 15.476562 C 6.523438 10.746094 10.351562 6.96875 15.132812 6.972656 C 19.765625 6.980469 23.558594 10.820312 23.554688 15.488281 Z M 20.234375 15.5625 C 20.234375 12.734375 17.90625 10.375 15.113281 10.375 C 12.171875 10.375 9.867188 12.675781 9.867188 15.59375 C 9.867188 18.449219 12.203125 20.742188 15.113281 20.742188 C 17.902344 20.738281 20.234375 18.386719 20.234375 15.5625 Z M 15.039062 13.242188 C 13.800781 13.242188 12.789062 14.253906 12.789062 15.496094 C 12.789062 16.75 13.800781 17.753906 15.0625 17.746094 C 16.3125 17.742188 17.289062 16.746094 17.289062 15.488281 C 17.289062 14.234375 16.296875 13.242188 15.039062 13.242188 Z M 15.039062 13.242188 " fill-opacity="1" fill-rule="nonzero"/></g></g></g></g><g mask="url(#97e3236556)"><g transform="matrix(1, 0, 0, 1, 22, 60)"><g clip-path="url(#4215226c76)"><g clip-path="url(#c07ab37b5a)"><path fill="#e51d23" d="M 15.527344 29.929688 C 7.363281 29.925781 0.710938 23.359375 0.609375 15.183594 C 0.511719 6.835938 7.234375 0.0546875 15.5625 0.0625 C 23.84375 0.0703125 30.488281 6.765625 30.480469 15.074219 C 30.472656 23.265625 23.757812 29.9375 15.527344 29.929688 Z M 15.546875 3.320312 C 9.15625 3.316406 3.886719 8.542969 3.875 14.902344 C 3.867188 21.417969 9.050781 26.644531 15.53125 26.667969 C 21.9375 26.6875 27.207031 21.445312 27.214844 15.046875 C 27.21875 8.566406 22.011719 3.328125 15.546875 3.320312 Z M 24.054688 14.988281 C 24.054688 19.753906 20.261719 23.507812 15.449219 23.507812 C 10.816406 23.507812 7.015625 19.660156 7.019531 14.976562 C 7.023438 10.246094 10.851562 6.46875 15.632812 6.472656 C 20.265625 6.480469 24.058594 10.320312 24.054688 14.988281 Z M 20.734375 15.0625 C 20.734375 12.234375 18.40625 9.875 15.613281 9.875 C 12.671875 9.875 10.367188 12.175781 10.367188 15.09375 C 10.367188 17.949219 12.703125 20.242188 15.613281 20.242188 C 18.402344 20.238281 20.734375 17.886719 20.734375 15.0625 Z M 15.539062 12.742188 C 14.300781 12.742188 13.289062 13.753906 13.289062 14.996094 C 13.289062 16.25 14.300781 17.253906 15.5625 17.246094 C 16.8125 17.242188 17.789062 16.246094 17.789062 14.988281 C 17.789062 13.734375 16.796875 12.742188 15.539062 12.742188 Z M 15.539062 12.742188 " fill-opacity="1" fill-rule="nonzero"/></g></g></g></g><g mask="url(#30a3f0f8d2)"><g transform="matrix(1, 0, 0, 1, 16, 16)"><g clip-path="url(#e94543e6f9)"><g clip-path="url(#c88c3a99be)"><g clip-path="url(#e9754ca073)"><g clip-path="url(#e24ecb9318)"><path fill="#e51d23" d="M 20.164062 19.164062 C 19.53125 19.527344 19.09375 20.089844 18.902344 20.792969 C 18.710938 21.496094 18.800781 22.203125 19.164062 22.835938 C 19.527344 23.46875 20.089844 23.90625 20.792969 24.097656 C 21.496094 24.289062 22.203125 24.199219 22.835938 23.835938 C 23.46875 23.472656 23.90625 22.910156 24.097656 22.207031 C 24.289062 21.503906 24.199219 20.796875 23.835938 20.164062 C 23.472656 19.53125 22.910156 19.09375 22.207031 18.902344 C 21.503906 18.710938 20.796875 18.800781 20.164062 19.164062 Z M 23.566406 22.0625 C 23.414062 22.621094 23.070312 23.070312 22.566406 23.359375 C 22.058594 23.648438 21.496094 23.71875 20.9375 23.566406 C 20.378906 23.414062 19.929688 23.070312 19.640625 22.566406 C 19.351562 22.058594 19.28125 21.496094 19.433594 20.9375 C 19.585938 20.378906 19.929688 19.929688 20.433594 19.640625 C 20.941406 19.351562 21.503906 19.28125 22.0625 19.433594 C 22.625 19.582031 23.070312 19.929688 23.359375 20.433594 C 23.648438 20.941406 23.71875 21.503906 23.566406 22.0625 Z M 23.566406 22.0625 " fill-opacity="1" fill-rule="nonzero"/></g></g></g><g clip-path="url(#85cfd7be7f)"><g clip-path="url(#c43a9e7135)"><g clip-path="url(#686cc144a7)"><path fill="#e51d23" d="M 34.382812 13.8125 L 31.976562 15.1875 C 30.347656 12.476562 27.777344 10.53125 24.710938 9.695312 C 21.648438 8.863281 18.445312 9.238281 15.664062 10.75 L 14.289062 8.34375 L 13.8125 8.617188 L 15.1875 11.019531 C 12.476562 12.652344 10.53125 15.222656 9.695312 18.289062 C 8.863281 21.351562 9.238281 24.554688 10.75 27.335938 L 8.34375 28.710938 L 8.617188 29.1875 L 11.023438 27.8125 C 12.652344 30.523438 15.222656 32.46875 18.289062 33.304688 C 21.351562 34.136719 24.554688 33.761719 27.335938 32.25 L 28.710938 34.65625 L 29.1875 34.382812 L 27.8125 31.976562 C 30.523438 30.347656 32.46875 27.777344 33.304688 24.710938 C 34.136719 21.648438 33.761719 18.445312 32.25 15.664062 L 34.65625 14.289062 Z M 31.503906 15.460938 L 27.835938 17.558594 C 26.839844 15.949219 25.292969 14.800781 23.460938 14.300781 C 21.625 13.800781 19.710938 14.011719 18.035156 14.890625 L 15.9375 11.226562 C 21.410156 8.257812 28.285156 10.128906 31.503906 15.460938 Z M 24.933594 27.5 C 23.332031 28.417969 21.464844 28.65625 19.683594 28.171875 C 17.902344 27.6875 16.417969 26.535156 15.5 24.933594 C 14.582031 23.332031 14.34375 21.464844 14.828125 19.683594 C 15.3125 17.902344 16.464844 16.417969 18.066406 15.5 C 19.667969 14.582031 21.535156 14.34375 23.316406 14.828125 C 25.097656 15.3125 26.582031 16.464844 27.5 18.066406 C 28.417969 19.667969 28.65625 21.535156 28.171875 23.316406 C 27.6875 25.097656 26.535156 26.582031 24.933594 27.5 Z M 15.460938 11.496094 L 17.558594 15.164062 C 15.949219 16.160156 14.800781 17.707031 14.300781 19.542969 C 13.800781 21.375 14.011719 23.292969 14.890625 24.964844 L 11.226562 27.0625 C 8.257812 21.589844 10.128906 14.714844 15.460938 11.496094 Z M 11.496094 27.539062 L 15.164062 25.441406 C 16.160156 27.050781 17.707031 28.203125 19.539062 28.699219 C 21.375 29.199219 23.289062 28.988281 24.964844 28.109375 L 27.0625 31.773438 C 21.589844 34.742188 14.714844 32.871094 11.496094 27.539062 Z M 27.539062 31.503906 L 25.441406 27.835938 C 27.050781 26.839844 28.199219 25.292969 28.699219 23.460938 C 29.199219 21.625 28.988281 19.710938 28.109375 18.035156 L 31.773438 15.9375 C 34.742188 21.410156 32.871094 28.285156 27.539062 31.503906 Z M 27.539062 31.503906 " fill-opacity="1" fill-rule="nonzero"/></g></g></g></g></g></g></svg>